# xmcd CD database file
#
# Track frame offsets:
#	150
#	27210
#	49413
#	79267
#	103548
#	124430
#	144289
#	169773
#
# Disc length: 2547 seconds
#
# Revision: 0
# Processed by: cddbd v1.4PL0 Copyright (c) Steve Scherf et al.
# Submitted via: CDex 1.50
#
DISCID=6909f108
DTITLE=V&F Project - V&F Project
DYEAR=2000
DGENRE=Jazz
TTITLE0=African Dreams
TTITLE1=Endless Loop
TTITLE2=City Shadow
TTITLE3=When I Give My Love To You
TTITLE4=Little Jones
TTITLE5=Disco off Love
TTITLE6=Song Number Seven
TTITLE7=In The End of The World
EXTD=YEAR: 2000
EXTT0=
EXTT1=
EXTT2=
EXTT3=
EXTT4=
EXTT5=
EXTT6=
EXTT7=
PLAYORDER=
